<svg xmlns="http://www.w3.org/2000/svg" xmlns:xlink="http://www.w3.org/1999/xlink" viewBox="0,0,256,256" width="60px" height="60px" fill-rule="nonzero"><g fill="#d9d9d9" fill-rule="nonzero" stroke="none" stroke-width="1" stroke-linecap="butt" stroke-linejoin="miter" stroke-miterlimit="10" stroke-dasharray="" stroke-dashoffset="0" font-family="none" font-weight="none" font-size="none" text-anchor="none" style="mix-blend-mode: normal"><g transform="scale(4.26667,4.26667)"><path d="M33.5,6.1543c-0.81741,-0.04645 -1.64163,0.07286 -2.45312,0.16211c-1.143,0.125 -2.28606,0.26428 -3.41406,0.48828c-0.972,0.193 -2.02051,0.41742 -2.85352,0.98242c-0.846,0.574 -1.30827,1.39841 -1.69727,2.31641c-0.469,1.106 -0.92953,2.21526 -1.39453,3.32227c-0.749,0.041 -1.49809,0.07128 -2.24609,0.11328c-3.147,0.175 -6.29441,0.36074 -9.44141,0.55274c-1.279,0.078 -1.288,2.079 0,2c1.399,-0.086 2.79827,-0.15433 4.19727,-0.23633c0.976,6.267 2.13264,12.50845 3.55664,18.68945c0.715,3.104 1.48952,6.19572 2.35352,9.26172c0.522,1.853 1.26403,3.78092 2.58203,5.16992c-3.232,0.415 -6.35234,1.36308 -9.27734,2.83008c-0.75,0.376 -0.58876,1.65812 0.24024,1.82813c1.26,0.258 2.4717,0.07484 3.7207,-0.16016c1.312,-0.247 2.62908,-0.45338 3.95508,-0.60937c2.638,-0.31 5.28845,-0.47195 7.93945,-0.62695c2.571,-0.15 5.1398,-0.28995 7.7168,-0.25195c2.571,0.037 5.14089,0.17916 7.71289,0.16016c2.869,-0.021 5.7523,-0.25972 8.5293,-1.01172c0.935,-0.254 0.96705,-1.69369 -0.00195,-1.92969c-2.377,-0.579 -4.82766,-0.6517 -7.22266,-0.2207c0.014,-0.02 0.03092,-0.03469 0.04492,-0.05469c0.736,-1.093 0.99286,-2.42494 1.13086,-3.71094c0.333,-3.096 0.32589,-6.25814 0.46289,-9.36914c0.319,-7.224 0.60986,-14.44783 0.88086,-21.67383c1.493,-0.059 2.98552,-0.12178 4.47852,-0.17578c1.283,-0.046 1.289,-2.047 0,-2c-4.306,0.156 -8.60906,0.3413 -12.91406,0.5293c-0.277,-2.015 -1.57984,-3.46047 -3.08984,-4.73047c-0.793,-0.668 -1.64864,-1.30716 -2.68164,-1.53516c-0.27,-0.0595 -0.54198,-0.09389 -0.81445,-0.10937zM32.75586,8.14258c0.21658,-0.00833 0.43223,-0.00764 0.64648,0.00586c0.786,0.049 1.43034,0.4485 2.02734,0.9375c1.062,0.87 2.47011,2.01752 2.66211,3.47852c0.002,0.017 0.01067,0.02988 0.01367,0.04688c-4.741,0.212 -9.47975,0.45308 -14.21875,0.70508c0.277,-0.662 0.55308,-1.32242 0.83008,-1.98242c0.279,-0.664 0.52944,-1.44705 1.14844,-1.87305c0.62,-0.427 1.46064,-0.55612 2.18164,-0.70312c0.914,-0.186 1.83863,-0.31006 2.76563,-0.41406c0.6375,-0.07125 1.29362,-0.17619 1.94336,-0.20117zM46.51953,14.25195c-0.227,6.039 -0.46656,12.07628 -0.72656,18.11328c-0.134,3.109 -0.27302,6.21912 -0.41602,9.32813c-0.099,2.153 0.22225,5.42987 -1.71875,6.92188c-0.423,0.326 -0.92045,0.54055 -1.43945,0.68555c-1.124,0.027 -2.24714,0.05203 -3.36914,0.08203c-1.762,0.048 -3.52511,0.09949 -5.28711,0.14648c-2.132,-0.089 -4.26609,-0.24425 -6.37109,-0.53125c-1.31,-0.178 -2.40016,-0.60723 -3.28516,-1.61523c-0.857,-0.975 -1.31169,-2.23108 -1.67969,-3.45508c-0.865,-2.877 -1.57953,-5.81037 -2.26953,-8.73437c-1.518,-6.429 -2.73772,-12.92617 -3.76172,-19.45117c9.115,-0.525 18.23347,-0.995 27.35547,-1.375c0.99,-0.041 1.97875,-0.07624 2.96875,-0.11524zM39.97266,24.45117c-0.5,0.00038 -1.01302,0.32284 -1.04102,0.96484c-0.146,3.384 -0.29345,6.76639 -0.43945,10.15039c-0.056,1.287 1.944,1.284 2,0c0.146,-3.384 0.29345,-6.76639 0.43945,-10.15039c0.028,-0.6435 -0.45898,-0.96522 -0.95898,-0.96484zM32.37891,24.61133c-0.511,0 -1.039,0.458 -1,1c0.263,3.635 0.52606,7.27125 0.78906,10.90625c0.039,0.539 0.431,1 1,1c0.511,0 1.039,-0.458 1,-1c-0.263,-3.635 -0.52606,-7.27125 -0.78906,-10.90625c-0.039,-0.539 -0.432,-1 -1,-1zM24.63086,25.47852c-0.13075,-0.01759 -0.26327,-0.01006 -0.38477,0.02344c-0.561,0.154 -0.79227,0.69552 -0.69727,1.22852l1.91992,10.81836c0.094,0.531 0.74252,0.83027 1.22852,0.69727c0.561,-0.154 0.79422,-0.69552 0.69922,-1.22852l-1.91992,-10.81836c-0.0705,-0.399 -0.45345,-0.66792 -0.8457,-0.7207z"></path></g></g></svg>