<svg xmlns="http://www.w3.org/2000/svg"  viewBox="0 0 60 60" width="60px" height="60px"><path d="M 33.5 6.1542969 C 32.682594 6.1078437 31.858375 6.2271563 31.046875 6.3164062 C 29.903875 6.4414062 28.760813 6.5806875 27.632812 6.8046875 C 26.660812 6.9976875 25.612297 7.2221094 24.779297 7.7871094 C 23.933297 8.3611094 23.471031 9.1855156 23.082031 10.103516 C 22.613031 11.209516 22.1525 12.318781 21.6875 13.425781 C 20.9385 13.466781 20.189406 13.497062 19.441406 13.539062 C 16.294406 13.714063 13.147 13.899797 10 14.091797 C 8.721 14.169797 8.712 16.170797 10 16.091797 C 11.399 16.005797 12.798266 15.937469 14.197266 15.855469 C 15.173266 22.122469 16.329906 28.363922 17.753906 34.544922 C 18.468906 37.648922 19.243422 40.740641 20.107422 43.806641 C 20.629422 45.659641 21.371453 47.587563 22.689453 48.976562 C 19.457453 49.391562 16.337109 50.339641 13.412109 51.806641 C 12.662109 52.182641 12.823344 53.464766 13.652344 53.634766 C 14.912344 53.892766 16.124047 53.709609 17.373047 53.474609 C 18.685047 53.227609 20.002125 53.021234 21.328125 52.865234 C 23.966125 52.555234 26.616578 52.393281 29.267578 52.238281 C 31.838578 52.088281 34.407375 51.948328 36.984375 51.986328 C 39.555375 52.023328 42.125266 52.165484 44.697266 52.146484 C 47.566266 52.125484 50.449562 51.886766 53.226562 51.134766 C 54.161562 50.880766 54.193609 49.441078 53.224609 49.205078 C 50.847609 48.626078 48.396953 48.553375 46.001953 48.984375 C 46.015953 48.964375 46.032875 48.949688 46.046875 48.929688 C 46.782875 47.836687 47.039734 46.50475 47.177734 45.21875 C 47.510734 42.12275 47.503625 38.960609 47.640625 35.849609 C 47.959625 28.625609 48.250484 21.401781 48.521484 14.175781 C 50.014484 14.116781 51.507 14.054 53 14 C 54.283 13.954 54.289 11.953 53 12 C 48.694 12.156 44.390938 12.341297 40.085938 12.529297 C 39.808937 10.514297 38.506094 9.0688281 36.996094 7.7988281 C 36.203094 7.1308281 35.347453 6.4916719 34.314453 6.2636719 C 34.044453 6.2041719 33.772469 6.1697812 33.5 6.1542969 z M 32.755859 8.1425781 C 32.972437 8.13425 33.188094 8.1349375 33.402344 8.1484375 C 34.188344 8.1974375 34.832687 8.5969375 35.429688 9.0859375 C 36.491687 9.9559375 37.899797 11.103453 38.091797 12.564453 C 38.093797 12.581453 38.102469 12.594328 38.105469 12.611328 C 33.364469 12.823328 28.625719 13.064406 23.886719 13.316406 C 24.163719 12.654406 24.439797 11.993984 24.716797 11.333984 C 24.995797 10.669984 25.246234 9.8869375 25.865234 9.4609375 C 26.485234 9.0339375 27.325875 8.9048125 28.046875 8.7578125 C 28.960875 8.5718125 29.8855 8.44775 30.8125 8.34375 C 31.45 8.2725 32.106125 8.1675625 32.755859 8.1425781 z M 46.519531 14.251953 C 46.292531 20.290953 46.052969 26.328234 45.792969 32.365234 C 45.658969 35.474234 45.519953 38.584359 45.376953 41.693359 C 45.277953 43.846359 45.599203 47.123234 43.658203 48.615234 C 43.235203 48.941234 42.73775 49.155781 42.21875 49.300781 C 41.09475 49.327781 39.971609 49.352812 38.849609 49.382812 C 37.087609 49.430813 35.3245 49.482297 33.5625 49.529297 C 31.4305 49.440297 29.296406 49.285047 27.191406 48.998047 C 25.881406 48.820047 24.79125 48.390813 23.90625 47.382812 C 23.04925 46.407812 22.594562 45.151734 22.226562 43.927734 C 21.361563 41.050734 20.647031 38.117359 19.957031 35.193359 C 18.439031 28.764359 17.219313 22.267187 16.195312 15.742188 C 25.310313 15.217187 34.428781 14.747187 43.550781 14.367188 C 44.540781 14.326187 45.529531 14.290953 46.519531 14.251953 z M 39.972656 24.451172 C 39.472656 24.451547 38.959641 24.774016 38.931641 25.416016 C 38.785641 28.800016 38.638187 32.182406 38.492188 35.566406 C 38.436188 36.853406 40.436188 36.850406 40.492188 35.566406 C 40.638188 32.182406 40.785641 28.800016 40.931641 25.416016 C 40.959641 24.772516 40.472656 24.450797 39.972656 24.451172 z M 32.378906 24.611328 C 31.867906 24.611328 31.339906 25.069328 31.378906 25.611328 C 31.641906 29.246328 31.904969 32.882578 32.167969 36.517578 C 32.206969 37.056578 32.598969 37.517578 33.167969 37.517578 C 33.678969 37.517578 34.206969 37.059578 34.167969 36.517578 C 33.904969 32.882578 33.641906 29.246328 33.378906 25.611328 C 33.339906 25.072328 32.946906 24.611328 32.378906 24.611328 z M 24.630859 25.478516 C 24.500109 25.460922 24.367594 25.468453 24.246094 25.501953 C 23.685094 25.655953 23.453828 26.197469 23.548828 26.730469 L 25.46875 37.548828 C 25.56275 38.079828 26.211266 38.379094 26.697266 38.246094 C 27.258266 38.092094 27.491484 37.550578 27.396484 37.017578 L 25.476562 26.199219 C 25.406062 25.800219 25.023109 25.531297 24.630859 25.478516 z"/></svg>